<svg height="367" viewBox="0 0 72 66" width="400" xmlns="http://www.w3.org/2000/svg"><path d="m29 2.26a4.67 4.67 0 0 0 -8 0l-6.58 11.27a32.21 32.21 0 0 1 17.75 26.66h-4.62a27.68 27.68 0 0 0 -15.46-22.72l-6.09 10.53a15.92 15.92 0 0 1 9.23 12.17h-10.61a.76.76 0 0 1 -.62-1.11l2.94-5a10.74 10.74 0 0 0 -3.36-1.9l-2.91 5a4.54 4.54 0 0 0 1.69 6.24 4.66 4.66 0 0 0 2.26.6h14.53a19.4 19.4 0 0 0 -8-17.31l2.31-4a23.87 23.87 0 0 1 10.3 21.31h12.31a35.88 35.88 0 0 0 -16.41-31.8l4.67-8a.77.77 0 0 1 1.05-.27c.53.29 20.29 34.77 20.66 35.17a.76.76 0 0 1 -.68 1.13h-4.76q.09 1.91 0 3.81h4.78a4.59 4.59 0 0 0 4.62-4.61 4.49 4.49 0 0 0 -.62-2.28z" fill="#362d59" transform="translate(11 11)"/></svg>