<svg height="128" width="128" xmlns="http://www.w3.org/2000/svg"><path d="m0 0h128v128h-128z" fill="#574573" stroke-width=".999999"/><path d="m72.037803 24.032365a9.4457266 9.4457266 0 0 0 -16.181111 0l-13.30898 22.795148a65.14922 65.14922 0 0 1 35.901878 53.923577h-9.344633a55.986662 55.986662 0 0 0 -31.269979-45.954374l-12.317894 21.298395a32.200422 32.200422 0 0 1 18.668967 24.615519h-21.460204a1.5372061 1.5372061 0 0 1 -1.25404-2.245122l5.946567-10.113204a21.723149 21.723149 0 0 0 -6.796051-3.843012l-5.885891 10.1132a9.1827837 9.1827837 0 0 0 3.418235 12.621268 9.4255008 9.4255008 0 0 0 4.57118 1.21357h29.388946a39.239208 39.239208 0 0 0 -16.181103-35.01188l4.672316-8.090559a48.280409 48.280409 0 0 1 20.833166 43.102439h24.898697a72.572307 72.572307 0 0 0 -33.191526-64.319926l9.445724-16.181118a1.5574325 1.5574325 0 0 1 2.123777-.546111c1.072018.586564 41.039376 70.327177 41.787736 71.136234a1.5372061 1.5372061 0 0 1 -1.3754 2.285581h-9.627746q.181909 3.86325 0 7.70627h9.668226a9.2839159 9.2839159 0 0 0 9.34458-9.324375 9.0816515 9.0816515 0 0 0 -1.25404-4.611621z" fill="#fff" stroke-width=".535157"/></svg>